<svg width="28" height="28" viewBox="0 0 28 28" fill="none" xmlns="http://www.w3.org/2000/svg">
<path d="M14 28C21.732 28 28 21.732 28 14C28 6.26801 21.732 0 14 0C6.26801 0 0 6.26801 0 14C0 21.732 6.26801 28 14 28Z" fill="#4D76A1"/>
<path fill-rule="evenodd" clip-rule="evenodd" d="M13.4712 20.1403H14.57C14.57 20.1403 14.9019 20.1038 15.0714 19.9211C15.2274 19.7534 15.2224 19.4385 15.2224 19.4385C15.2224 19.4385 15.2009 17.9641 15.8852 17.7469C16.5598 17.5331 17.426 19.172 18.3441 19.8021C19.0384 20.279 19.566 20.1744 19.566 20.1744L22.021 20.1403C22.021 20.1403 23.3052 20.0611 22.6963 19.0514C22.6464 18.9688 22.3417 18.3045 20.871 16.9394C19.3317 15.5106 19.5378 15.7417 21.3921 13.2703C22.5213 11.7652 22.9728 10.8463 22.8318 10.4527C22.6973 10.0779 21.8667 10.1769 21.8667 10.1769L19.1026 10.1942C19.1026 10.1942 18.8977 10.1662 18.7457 10.2571C18.5972 10.3461 18.5016 10.5538 18.5016 10.5538C18.5016 10.5538 18.0641 11.7185 17.4807 12.709C16.2498 14.7991 15.7577 14.9094 15.5565 14.7796C15.0886 14.4772 15.2054 13.5645 15.2054 12.9162C15.2054 10.8907 15.5126 10.0462 14.6072 9.82756C14.3067 9.75494 14.0856 9.70702 13.3172 9.69928C12.3309 9.68905 11.4961 9.70228 11.0235 9.93387C10.709 10.0879 10.4664 10.431 10.6142 10.4507C10.7969 10.4752 11.2106 10.5623 11.43 10.861C11.7133 11.2463 11.7033 12.1118 11.7033 12.1118C11.7033 12.1118 11.866 14.4961 11.3232 14.7924C10.9506 14.9955 10.4395 14.5807 9.34215 12.6846C8.77989 11.7133 8.35538 10.6396 8.35538 10.6396C8.35538 10.6396 8.27352 10.439 8.12753 10.3317C7.95034 10.2017 7.70277 10.1602 7.70277 10.1602L5.07612 10.1774C5.07612 10.1774 4.68181 10.1884 4.53706 10.3599C4.40829 10.5124 4.52683 10.8278 4.52683 10.8278C4.52683 10.8278 6.58323 15.6389 8.91166 18.0634C11.0467 20.2863 13.4712 20.1403 13.4712 20.1403Z" fill="white"/>
</svg>
