<svg width="28" height="28" viewBox="0 0 28 28" fill="none" xmlns="http://www.w3.org/2000/svg">
<circle cx="14" cy="14" r="14" fill="#4CAF50"/>
<path d="M20.6754 16.4002C20.6754 16.4002 19.2462 15.7002 18.3514 15.2335C17.3387 14.712 16.1487 15.6885 15.5887 16.2439C14.7172 15.9091 13.9211 15.4038 13.2472 14.7575C12.6009 14.0837 12.0956 13.2877 11.7609 12.416C12.3162 11.8549 13.2904 10.666 12.7712 9.65339C12.3104 8.75739 11.6046 7.32939 11.6046 7.32824C11.5055 7.13169 11.3043 7.0076 11.0842 7.00739H9.91757C8.21854 7.30084 6.9832 8.78331 7.00092 10.5074C7.00092 12.339 9.19307 15.8577 10.6713 17.337C12.1495 18.8163 15.6681 21.0074 17.5009 21.0074C19.225 21.0251 20.7075 19.7897 21.0009 18.0907V16.9241C21.0011 16.7016 20.8749 16.4985 20.6754 16.4002Z" fill="#FAFAFA"/>
</svg>
