<svg width="20" height="16" viewBox="0 0 20 16" fill="none" xmlns="http://www.w3.org/2000/svg">
<path d="M17.5585 0.389648H2.44569C1.09663 0.389648 0 1.48628 0 2.83534V13.1643C0 14.5134 1.09663 15.61 2.44569 15.61H17.5543C18.9034 15.61 20 14.5134 20 13.1643V2.83947C20.0041 1.49041 18.9075 0.389648 17.5585 0.389648ZM18.8868 13.1643C18.8868 13.8968 18.2909 14.4927 17.5585 14.4927H2.44569C1.71322 14.4927 1.11732 13.8968 1.11732 13.1643V2.83947C1.11732 2.10701 1.71322 1.51111 2.44569 1.51111H17.5543C18.2868 1.51111 18.8827 2.10701 18.8827 2.83947V13.1643H18.8868Z" fill="#8EE901"/>
<path d="M12.6118 7.87145L17.5032 3.48494C17.7308 3.27803 17.7515 2.92628 17.5445 2.69454C17.3376 2.46694 16.9859 2.44624 16.7541 2.65316L10.0089 8.70737L8.6929 7.53211C8.68876 7.52797 8.68463 7.52384 8.68463 7.5197C8.65566 7.49073 8.62669 7.4659 8.59358 7.44107L3.23873 2.64902C3.00699 2.44211 2.65524 2.4628 2.44833 2.69454C2.24142 2.92628 2.26211 3.27803 2.49385 3.48494L7.44316 7.90869L2.51455 12.5228C2.29108 12.7339 2.27867 13.0856 2.48972 13.3132C2.60145 13.4291 2.75042 13.4911 2.8994 13.4911C3.03596 13.4911 3.17252 13.4415 3.28012 13.3422L8.28322 8.66185L9.64055 9.87434C9.74815 9.96952 9.88057 10.015 10.013 10.015C10.1454 10.015 10.282 9.96538 10.3854 9.8702L11.78 8.62046L16.7541 13.3463C16.8617 13.4498 17.0024 13.4994 17.139 13.4994C17.288 13.4994 17.4328 13.4415 17.5445 13.3256C17.7556 13.1022 17.7473 12.7463 17.5239 12.5352L12.6118 7.87145Z" fill="#8EE901"/>
</svg>
