<svg width="32" height="32" viewBox="0 0 32 32" fill="none" xmlns="http://www.w3.org/2000/svg">
<path d="M29.3065 15.0672C29.3161 15.0304 29.3273 14.9952 29.3289 14.9568C29.3294 14.9488 29.3337 14.9419 29.3337 14.9333C29.3337 7.76 23.6393 1.89493 16.5337 1.61333V0.533333C16.5337 0.2384 16.2947 0 16.0003 0C15.7059 0 15.467 0.2384 15.467 0.533333V1.61333C8.36139 1.89493 2.66699 7.76 2.66699 14.9333C2.66699 14.9419 2.67126 14.9488 2.67179 14.9573C2.67339 14.9952 2.68406 15.0304 2.69419 15.0677C2.70273 15.0992 2.70753 15.1307 2.72086 15.1595C2.73419 15.1877 2.75499 15.2112 2.77313 15.2368C2.79553 15.2683 2.81633 15.2997 2.84513 15.3259C2.85099 15.3312 2.85366 15.3392 2.86006 15.3445C2.87926 15.3605 2.90273 15.3659 2.92299 15.3787C2.95446 15.3984 2.98433 15.4181 3.02006 15.4309C3.05739 15.4448 3.09526 15.4491 3.13366 15.4539C3.15659 15.456 3.17686 15.4667 3.20033 15.4667C3.20833 15.4667 3.21473 15.4624 3.22273 15.4624C3.26326 15.4608 3.30113 15.4496 3.34006 15.4389C3.36886 15.4309 3.39819 15.4267 3.42433 15.4139C3.45473 15.4 3.47979 15.3776 3.50753 15.3579C3.53686 15.3365 3.56673 15.3168 3.59126 15.2901C3.59713 15.2837 3.60513 15.2811 3.61099 15.2741C4.36299 14.3664 5.35393 13.8667 6.40033 13.8667C7.44673 13.8667 8.43766 14.3664 9.18966 15.2741C9.19979 15.2864 9.21526 15.2912 9.22646 15.3024C9.23926 15.3152 9.24566 15.3323 9.26006 15.344C9.28139 15.3616 9.30699 15.368 9.32939 15.3819C9.35659 15.3984 9.38166 15.4149 9.41046 15.4256C9.45419 15.4427 9.49793 15.4496 9.54326 15.4544C9.56299 15.4565 9.58113 15.4667 9.60033 15.4667C9.60886 15.4667 9.61686 15.4629 9.62486 15.4624C9.65206 15.4613 9.67713 15.4544 9.70379 15.4491C9.74059 15.4416 9.77579 15.4331 9.81046 15.4176C9.83713 15.4059 9.86113 15.3909 9.88566 15.3744C9.90326 15.3632 9.92299 15.3573 9.93953 15.3435C9.95233 15.3328 9.95819 15.3179 9.96993 15.3061C9.98219 15.2939 9.99873 15.2875 10.0099 15.2736C10.763 14.3664 11.7539 13.8667 12.8003 13.8667C13.7923 13.8667 14.731 14.32 15.467 15.1392V29.3333C15.467 30.2155 14.7491 30.9333 13.867 30.9333C12.9849 30.9333 12.267 30.2155 12.267 29.3333C12.267 29.0384 12.0281 28.8 11.7337 28.8C11.4393 28.8 11.2003 29.0384 11.2003 29.3333C11.2003 30.8037 12.3966 32 13.867 32C15.3374 32 16.5337 30.8037 16.5337 29.3333V15.1392C17.2697 14.32 18.2083 13.8667 19.2003 13.8667C20.2467 13.8667 21.2377 14.3664 21.9897 15.2741C21.9998 15.2864 22.0153 15.2912 22.0265 15.3024C22.0393 15.3152 22.0457 15.3323 22.0601 15.344C22.0814 15.3616 22.107 15.3675 22.1294 15.3813C22.1566 15.3979 22.1817 15.4144 22.211 15.4256C22.2542 15.4421 22.2979 15.4496 22.3438 15.4544C22.363 15.4565 22.3811 15.4667 22.4003 15.4667C22.4089 15.4667 22.4169 15.4629 22.4249 15.4624C22.4521 15.4613 22.4777 15.4544 22.5043 15.4485C22.5406 15.4411 22.5758 15.4325 22.6105 15.4176C22.6377 15.4059 22.6617 15.3904 22.6862 15.3744C22.7038 15.3632 22.7235 15.3573 22.7401 15.344C22.7529 15.3333 22.7587 15.3184 22.7699 15.3067C22.7822 15.2944 22.7987 15.288 22.8105 15.2741C23.563 14.3664 24.5539 13.8667 25.6003 13.8667C26.6467 13.8667 27.6377 14.3664 28.3897 15.2741C28.395 15.2805 28.4025 15.2821 28.4083 15.2885C28.4457 15.3296 28.4905 15.3605 28.539 15.3888C28.5555 15.3984 28.5683 15.4128 28.5859 15.4203C28.6515 15.4491 28.7235 15.4667 28.8003 15.4667C28.8659 15.4667 28.931 15.4523 28.9929 15.4277C29.0169 15.4181 29.0366 15.4027 29.059 15.3899C29.0862 15.3744 29.1155 15.3643 29.1401 15.3435C29.1465 15.3381 29.1491 15.3307 29.155 15.3248C29.1838 15.2987 29.2041 15.2677 29.227 15.2357C29.2451 15.2101 29.2659 15.1861 29.2793 15.1584C29.2931 15.1301 29.2985 15.0987 29.3065 15.0672ZM25.6003 12.8C24.4174 12.8 23.3006 13.2773 22.4003 14.1515C21.5001 13.2773 20.3833 12.8 19.2003 12.8C18.0174 12.8 16.9006 13.2773 16.0003 14.1515C15.1001 13.2773 13.9833 12.8 12.8003 12.8C11.6174 12.8 10.5006 13.2773 9.60033 14.1515C8.70006 13.2773 7.58326 12.8 6.40033 12.8C5.46699 12.8 4.57739 13.1019 3.80033 13.656C4.44139 7.49013 9.66806 2.66667 16.0003 2.66667C22.3326 2.66667 27.5593 7.49013 28.2003 13.656C27.4233 13.1019 26.5337 12.8 25.6003 12.8Z" fill="black"/>
</svg>
